<?xml version="1.0" encoding="UTF-8" standalone="yes"?>
<!-- Created with sK1/UniConvertor (http://sk1project.org/) -->
<svg xmlns="http://www.w3.org/2000/svg" xmlns:xlink="http://www.w3.org/1999/xlink"
  width="1080pt" height="1080pt" viewBox="0 0 1080 1080"
  fill-rule="evenodd">
<g>
<g>
<path style="stroke:none; fill:#000000" d="M 162.5 0.599976C 141.4 3.5 135.1 4.69995 127 7C 80 20.6 41.7 52 20.1 94.6C 6.4 121.7 0.899998 144.3 0.699999 174C 0.499999 192.6 2.3 205.8 7 223C 24.7 286.4 78 334.8 143.7 347.2C 159.2 350.1 188.5 350.3 203 347.7C 254.4 338.2 296 310.5 322.8 268C 333.3 251.3 342.9 226.4 346.6 206.2C 348.8 194.1 349.6 167.3 348 154.1C 341.6 98.8 307.5 48.2001 259.4 22.4C 240 12 221.7 5.70007 202 2.5C 192.5 1 168.1 -0.199951 162.5 0.599976z"/>
</g>
</g>
</svg>